<svg xmlns:xlink="http://www.w3.org/1999/xlink" xmlns="http://www.w3.org/2000/svg" class="chr-footer__logo-img" width="396"  height="130" ><defs><symbol id="google-logo" viewBox="0 0 396 130">
    <path d="M51.0745265,101.038701 C23.3283097,101.038701 9.65724009e-07,78.4212338 9.65724009e-07,50.645974 C-0.00548030982,22.8707143 23.3228284,0.253246753 51.0745265,0.253246753 C66.4220981,0.253246753 77.3517615,6.27798701 85.5736748,14.1408766 L75.8718171,23.8528896 C69.9794459,18.3219805 61.9987087,14.0201623 51.0690452,14.0201623 C30.8102508,14.0201623 14.9693645,30.365974 14.9693645,50.645974 C14.9693645,70.925974 30.8102508,87.2717857 51.0690452,87.2717857 C64.2076627,87.2717857 71.6950851,81.9877922 76.48572,77.1921429 C80.4157945,73.2579545 82.991994,67.6063312 83.9731424,59.8641558 L51.0745265,59.8641558 L51.0745265,46.1027273 L97.3638985,46.1027273 C97.8572133,48.5609091 98.0983894,51.5129221 98.0983894,54.7063636 C98.0983894,65.0329221 95.2755325,77.8121753 86.1875777,86.9096429 C77.3462802,96.1223377 66.0548526,101.038701 51.0745265,101.038701 L51.0745265,101.038701 Z"></path>
    <path d="M167.573556,68.369026 C167.573556,87.0523052 152.965957,100.813734 135.036704,100.813734 C117.112933,100.813734 102.499853,87.0468182 102.499853,68.369026 C102.499853,49.5650325 117.112933,35.9188312 135.036704,35.9188312 C152.965957,35.9188312 167.573556,49.5650325 167.573556,68.369026 L167.573556,68.369026 Z M153.333202,68.369026 C153.333202,56.6926623 144.85915,48.7035714 135.036704,48.7035714 C125.214259,48.7035714 116.740207,56.6926623 116.740207,68.369026 C116.740207,79.9191883 125.214259,88.0344805 135.036704,88.0344805 C144.85915,88.0344805 153.333202,79.9191883 153.333202,68.369026 L153.333202,68.369026 Z"></path>
    <path d="M238.282011,68.369026 C238.282011,87.0523052 223.674411,100.813734 205.745159,100.813734 C187.821388,100.813734 173.208307,87.0468182 173.208307,68.369026 C173.208307,49.5650325 187.821388,35.9188312 205.745159,35.9188312 C223.674411,35.9188312 238.282011,49.5650325 238.282011,68.369026 L238.282011,68.369026 Z M224.041657,68.369026 C224.041657,56.6926623 215.567605,48.7035714 205.745159,48.7035714 C195.922713,48.7035714 187.448661,56.6926623 187.448661,68.369026 C187.448661,79.9191883 195.922713,88.0344805 205.745159,88.0344805 C215.567605,88.0344805 224.041657,79.9191883 224.041657,68.369026 L224.041657,68.369026 Z"></path>
    <path d="M306.04702,37.943539 L306.04702,96.1442857 C306.04702,120.111558 291.927254,129.944286 275.231289,129.944286 C259.516472,129.944286 250.061272,119.376299 246.498443,110.772662 L258.897088,105.609383 C261.106042,110.893377 266.51058,117.159545 275.225808,117.159545 C285.908814,117.159545 292.535676,110.52026 292.535676,98.1086364 L292.535676,93.4391883 L292.047842,93.4391883 C288.85774,97.3733766 282.71323,100.813734 274.97915,100.813734 C258.771019,100.813734 243.916762,86.6791883 243.916762,68.4897403 C243.916762,50.1740909 258.771019,35.9188312 274.97915,35.9188312 C282.71323,35.9188312 288.852259,39.3591883 292.047842,43.1726623 L292.535676,43.1726623 L292.535676,37.943539 L306.04702,37.943539 L306.04702,37.943539 Z M293.522306,68.4897403 C293.522306,57.0602922 285.908814,48.7035714 276.212437,48.7035714 C266.389992,48.7035714 258.162597,57.0602922 258.162597,68.4897403 C258.162597,79.798474 266.389992,88.0344805 276.212437,88.0344805 C285.908814,88.0344805 293.522306,79.798474 293.522306,68.4897403 L293.522306,68.4897403 Z"></path>
    <path d="M329.961825,3.54545455 L329.961825,98.9207143 L315.721472,98.9207143 L315.721472,3.54545455 L329.961825,3.54545455 L329.961825,3.54545455 Z"></path>
    <path d="M383.755064,79.0577273 L394.805315,86.4322727 C391.242486,91.7162662 382.647846,100.813734 367.793589,100.813734 C349.376503,100.813734 336.002191,86.558474 336.002191,68.369026 C336.002191,49.0712013 349.497091,35.9188312 366.198538,35.9188312 C383.020573,35.9188312 391.247967,49.3181169 393.944755,56.566461 L395.419218,60.2537338 L352.078772,78.1962662 C355.394944,84.7093506 360.552824,88.0289935 367.793589,88.0289935 C375.039836,88.0289935 380.071647,84.4624351 383.755064,79.0577273 L383.755064,79.0577273 Z M349.743749,67.3813636 L378.717771,55.3373701 C377.12272,51.2824675 372.332085,48.4566558 366.686372,48.4566558 C359.445607,48.4511688 349.376503,54.843539 349.743749,67.3813636 L349.743749,67.3813636 Z"></path>
  </symbol></defs>
            <title>Google</title>
            <use xlink:href="#google-logo" fill="#5F6368"></use>
            <image src="/chrome/static/images/fallback/google-footer-logo.jpg" xlink:href="" alt="Google Logo" width="86" height="28" class="svg-fallback" fill="#5F6368"></image>
            </svg>