<svg xmlns:xlink="http://www.w3.org/1999/xlink" xmlns="http://www.w3.org/2000/svg" class="chr-header-v3__logo-icon" width="160"  height="24" ><defs><symbol id="color-google-logo" viewBox="0 0 160 24">
    <path transform="translate(0.000000, -3.000000)" d="M90.096,21.352 C87.7786551,21.352 85.8353412,20.5673412 84.266,18.998 C82.6966588,17.4286588 81.912,15.4706784 81.912,13.124 C81.912,10.7773216 82.6966588,8.81934118 84.266,7.25 C85.8353412,5.68065882 87.7786551,4.896 90.096,4.896 C92.4720119,4.896 94.4006593,5.75399142 95.882,7.47 L94.474,8.834 C93.403328,7.49932666 91.9440092,6.832 90.096,6.832 C88.3799914,6.832 86.9316726,7.41132754 85.751,8.57 C84.5703274,9.72867246 83.98,11.2466573 83.98,13.124 C83.98,15.0013427 84.5703274,16.5193275 85.751,17.678 C86.9316726,18.8366725 88.3799914,19.416 90.096,19.416 C91.9880095,19.416 93.6013267,18.653341 94.936,17.128 L96.344,18.536 C95.6253297,19.4013377 94.7233388,20.0869975 93.638,20.593 C92.5526612,21.0990025 91.3720064,21.352 90.096,21.352 Z M100.392,5.248 L100.392,10.22 L100.304,11.716 L100.392,11.716 C100.685335,11.2026641 101.14733,10.7663351 101.778,10.407 C102.40867,10.0476649 103.08333,9.868 103.802,9.868 C105.136673,9.868 106.155996,10.2786626 106.86,11.1 C107.564004,11.9213374 107.916,13.0213264 107.916,14.4 L107.916,21 L105.892,21 L105.892,14.708 C105.892,12.7133234 105.004676,11.716 103.23,11.716 C102.393996,11.716 101.712003,12.0496633 101.184,12.717 C100.655997,13.3843367 100.392,14.1579956 100.392,15.038 L100.392,21 L98.368,21 L98.368,5.248 L100.392,5.248 Z M112.316,21 L110.292,21 L110.292,10.22 L112.228,10.22 L112.228,11.98 L112.316,11.98 C112.521334,11.3933304 112.942997,10.9093352 113.581,10.528 C114.219003,10.1466648 114.838664,9.956 115.44,9.956 C116.041336,9.956 116.547331,10.0439991 116.958,10.22 L116.188,12.112 C115.923999,12.0093328 115.564669,11.958 115.11,11.958 C114.376663,11.958 113.727669,12.2476638 113.163,12.827 C112.598331,13.4063362 112.316,14.1653286 112.316,15.104 L112.316,21 Z M119.224,11.518 C120.265339,10.4179945 121.592659,9.868 123.206,9.868 C124.819341,9.868 126.146661,10.4143279 127.188,11.507 C128.229339,12.5996721 128.75,13.9673251 128.75,15.61 C128.75,17.2526749 128.229339,18.6203279 127.188,19.713 C126.146661,20.8056721 124.819341,21.352 123.206,21.352 C121.592659,21.352 120.265339,20.8056721 119.224,19.713 C118.182661,18.6203279 117.662,17.2526749 117.662,15.61 C117.662,13.9673251 118.182661,12.6033388 119.224,11.518 Z M120.72,18.448 C121.424004,19.1520035 122.252662,19.504 123.206,19.504 C124.159338,19.504 124.98433,19.1483369 125.681,18.437 C126.37767,17.7256631 126.726,16.7833392 126.726,15.61 C126.726,14.4366608 126.37767,13.4943369 125.681,12.783 C124.98433,12.0716631 124.159338,11.716 123.206,11.716 C122.252662,11.716 121.42767,12.0716631 120.731,12.783 C120.03433,13.4943369 119.686,14.4366608 119.686,15.61 C119.686,16.7833392 120.030663,17.7293297 120.72,18.448 Z M130.598,21 L130.598,10.22 L132.534,10.22 L132.534,11.716 L132.622,11.716 C132.930002,11.2026641 133.402997,10.7663351 134.041,10.407 C134.679003,10.0476649 135.31333,9.868 135.944,9.868 C137.616008,9.868 138.752664,10.5573264 139.354,11.936 C140.234004,10.5573264 141.487992,9.868 143.116,9.868 C144.392006,9.868 145.352663,10.2749959 145.998,11.089 C146.643337,11.9030041 146.966,13.0066597 146.966,14.4 L146.966,21 L144.942,21 L144.942,14.708 C144.942,13.6226612 144.744002,12.8526689 144.348,12.398 C143.951998,11.9433311 143.350671,11.716 142.544,11.716 C141.751996,11.716 141.095669,12.05333 140.575,12.728 C140.054331,13.40267 139.794,14.1726623 139.794,15.038 L139.794,21 L137.77,21 L137.77,14.708 C137.77,13.6226612 137.572002,12.8526689 137.176,12.398 C136.779998,11.9433311 136.178671,11.716 135.372,11.716 C134.579996,11.716 133.923669,12.05333 133.403,12.728 C132.882331,13.40267 132.622,14.1726623 132.622,15.038 L132.622,21 L130.598,21 Z M154.226,21.352 C152.597992,21.352 151.274338,20.8093388 150.255,19.724 C149.235662,18.6386612 148.726,17.2673416 148.726,15.61 C148.726,14.0406588 149.220995,12.691339 150.211,11.562 C151.201005,10.432661 152.465992,9.868 154.006,9.868 C155.604675,9.868 156.884329,10.3886615 157.845,11.43 C158.805671,12.4713385 159.286,13.8646579 159.286,15.61 L159.264,15.984 L150.75,15.984 C150.808667,17.0693388 151.171663,17.9273302 151.839,18.558 C152.506337,19.1886698 153.287329,19.504 154.182,19.504 C155.634007,19.504 156.616664,18.8880062 157.13,17.656 L158.934,18.404 C158.581998,19.2400042 158.002671,19.9403305 157.196,20.505 C156.389329,21.0696695 155.399339,21.352 154.226,21.352 Z M157.13,14.312 C157.086,13.6959969 156.803669,13.1093361 156.283,12.552 C155.762331,11.9946639 154.988672,11.716 153.962,11.716 C153.213996,11.716 152.565003,11.9506643 152.015,12.42 C151.464997,12.8893357 151.087334,13.519996 150.882,14.312 L157.13,14.312 Z" id="Chrome" fill="#5F6368" fill-rule="nonzero"></path>
    <path d="M9.445,18.6184 C4.314,18.6184 0,14.4414 0,9.3094 C0,4.1784 4.314,0.0004 9.445,0.0004 C12.284,0.0004 14.304,1.1124 15.826,2.5654 L14.032,4.3594 C12.942,3.3374 11.466,2.5434 9.445,2.5434 C5.699,2.5434 2.77,5.5634 2.77,9.3094 C2.77,13.0554 5.699,16.0754 9.445,16.0754 C11.875,16.0754 13.259,15.0994 14.145,14.2134 C14.871,13.4874 15.349,12.4424 15.53,11.0124 L9.445,11.0124 L9.445,8.4694 L18.005,8.4694 C18.096,8.9234 18.142,9.4684 18.142,10.0584 C18.142,11.9664 17.619,14.3274 15.939,16.0074 C14.304,17.7104 12.215,18.6184 9.445,18.6184 Z" id="Fill-1" fill="#4285F4"></path>
    <path d="M28.7948,12.6243 C28.7948,10.4673 27.2568,8.9913 25.4728,8.9913 C23.6898,8.9913 22.1518,10.4673 22.1518,12.6243 C22.1518,14.7583 23.6898,16.2573 25.4728,16.2573 C27.2568,16.2573 28.7948,14.7583 28.7948,12.6243 M31.3808,12.6243 C31.3808,16.0753 28.7278,18.6183 25.4728,18.6183 C22.2188,18.6183 19.5658,16.0753 19.5658,12.6243 C19.5658,9.1503 22.2188,6.6303 25.4728,6.6303 C28.7278,6.6303 31.3808,9.1503 31.3808,12.6243" id="Fill-3" fill="#EA4335"></path>
    <path d="M42.0387,12.6243 C42.0387,10.4673 40.5007,8.9913 38.7167,8.9913 C36.9337,8.9913 35.3947,10.4673 35.3947,12.6243 C35.3947,14.7583 36.9337,16.2573 38.7167,16.2573 C40.5007,16.2573 42.0387,14.7583 42.0387,12.6243 M44.6247,12.6243 C44.6247,16.0753 41.9717,18.6183 38.7167,18.6183 C35.4617,18.6183 32.8097,16.0753 32.8097,12.6243 C32.8097,9.1503 35.4617,6.6303 38.7167,6.6303 C41.9717,6.6303 44.6247,9.1503 44.6247,12.6243" id="Fill-5" fill="#FBBC05"></path>
    <path d="M55.2213,12.6469 C55.2213,10.5359 53.8133,8.9909 52.0203,8.9909 C50.2043,8.9909 48.6823,10.5359 48.6823,12.6469 C48.6823,14.7359 50.2043,16.2569 52.0203,16.2569 C53.8133,16.2569 55.2213,14.7359 55.2213,12.6469 L55.2213,12.6469 Z M57.5373,6.9929 L57.5373,17.7559 C57.5373,22.1829 54.9263,23.9999 51.8383,23.9999 C48.9323,23.9999 47.1843,22.0469 46.5253,20.4579 L48.8183,19.5039 C49.2273,20.4799 50.2263,21.6379 51.8383,21.6379 C53.8133,21.6379 55.0403,20.4129 55.0403,18.1189 L55.0403,17.2559 L54.9483,17.2559 C54.3583,17.9829 53.2233,18.6179 51.7933,18.6179 C48.7963,18.6179 46.0493,16.0079 46.0493,12.6469 C46.0493,9.2639 48.7963,6.6299 51.7933,6.6299 C53.2233,6.6299 54.3583,7.2659 54.9483,7.9699 L55.0403,7.9699 L55.0403,6.9929 L57.5373,6.9929 Z" id="Fill-7" fill="#4285F4"></path>
    <polygon id="Fill-9" fill="#34A853" points="59.519 18.255 62.153 18.255 62.153 0.636 59.519 0.636"></polygon>
    <path d="M66.2176,12.4427 L71.5766,10.2177 C71.2806,9.4687 70.3956,8.9457 69.3516,8.9457 C68.0116,8.9457 66.1506,10.1267 66.2176,12.4427 M72.5066,14.5997 L74.5506,15.9617 C73.8926,16.9387 72.3026,18.6187 69.5556,18.6187 C66.1506,18.6187 63.6906,15.9847 63.6906,12.6247 C63.6906,9.0597 66.1726,6.6297 69.2606,6.6297 C72.3706,6.6297 73.8926,9.1047 74.3916,10.4447 L74.6636,11.1257 L66.6486,14.4407 C67.2626,15.6437 68.2156,16.2567 69.5556,16.2567 C70.8946,16.2567 71.8256,15.5987 72.5066,14.5997" id="Fill-11" fill="#EA4335"></path>
  </symbol></defs>
            <title>icon chrome logo</title>
            <use xlink:href="#color-google-logo"></use>
            <image src="/chrome/static/images/fallback/google-chrome-logo.jpg" xlink:href="" alt="Google Chrome" width="160" height="24" class="svg-fallback"></image>
            </svg>